<?xml version="1.0" encoding="UTF-8" standalone="no"?>
<!-- Created with Inkscape (http://www.inkscape.org/) -->

<svg
   width="700"
   height="320"
   viewBox="0 0 185.2086 84.667038"
   version="1.1"
   id="svg5"
   xmlns="http://www.w3.org/2000/svg">
  <defs
     id="defs2" />
  <g
     id="layer1">
    <rect
       style="fill:#afafaf;fill-opacity:1;stroke:none;"
       id="lead-1"
       width="23.812531"
       height="10.583346"
       x="-5.1563642e-09"
       y="37.041714"
       ry="0.26458368" />
    <rect
       style="fill:#afafaf;fill-opacity:1;stroke:none;"
       id="lead-2"
       width="23.812531"
       height="10.583346"
       x="161.39604"
       y="37.041714"
       ry="0.26458368" />
    <path
       style="fill:#374056;fill-opacity:1;stroke:none;"
       d="M 23.812531,82.020942 V 2.6458357 l 1.322918,-1.322918 h 29.104204 l 1.322918,1.322918 V 13.229183 l 1.322919,1.322919 h 76.72926 l 1.32292,-1.322919 V 2.6458357 l 1.32292,-1.322918 h 23.81253 l 1.32292,1.322918 V 82.020942 l -1.32292,1.32291 h -23.65241 l -1.48304,-1.32291 V 71.437591 l -1.22496,-1.322919 -76.82722,10e-7 -1.322919,1.322918 v 10.583351 l -1.322918,1.32291 H 25.135449 Z"
       id="resistor" />
    <rect
       style="fill-opacity:1;stroke:none;"
       id="band-1"
       width="10.583346"
       height="82.020935"
       x="34.395878"
       y="1.3229183"
       ry="0.26458368" />
    <rect
       style="fill-opacity:1;stroke:none;"
       id="band-2"
       width="10.583346"
       height="55.562572"
       x="58.208408"
       y="14.552101"
       ry="0.26458368" />
    <rect
       style="fill-opacity:1;stroke:none;"
       id="band-3"
       width="10.583346"
       height="55.562572"
       x="74.083427"
       y="14.552101"
       ry="0.26458368" />
    <rect
       style="fill-opacity:1;stroke:none;"
       id="band-4"
       width="10.583346"
       height="55.562572"
       x="105.83347"
       y="14.552101"
       ry="0.26458368" />
    <rect
       style="fill-opacity:1;stroke:none;"
       id="band-5"
       width="10.583344"
       height="82.020935"
       x="142.87518"
       y="1.3229183"
       ry="0.26458368" />
  </g>
</svg>
